<?xml version="1.0" encoding="UTF-8"?>
<!DOCTYPE svg PUBLIC "-//W3C//DTD SVG 1.1//EN" "http://www.w3.org/Graphics/SVG/1.1/DTD/svg11.dtd">
<svg xmlns="http://www.w3.org/2000/svg" version="1.1" width="2000px" height="2000px" style="shape-rendering:geometricPrecision; text-rendering:geometricPrecision; image-rendering:optimizeQuality; fill-rule:evenodd; clip-rule:evenodd" xmlns:xlink="http://www.w3.org/1999/xlink">
<g><path style="opacity:0.993" fill="#eff0ef" d="M 1805.5,369.5 C 1807.83,369.5 1810.17,369.5 1812.5,369.5C 1792.5,447.448 1771.83,525.448 1750.5,603.5C 1798.37,592.359 1846.2,581.026 1894,569.5C 1913.65,571.601 1923.48,582.601 1923.5,602.5C 1861.74,715.852 1799.07,828.685 1735.5,941C 1691.88,1020.9 1647.72,1100.4 1603,1179.5C 1541.21,1291.75 1478.88,1403.75 1416,1515.5C 1407.52,1523.07 1397.69,1525.57 1386.5,1523C 1310.51,1492.8 1235.01,1462.3 1160,1431.5C 1010.44,1525.09 860.939,1618.59 711.5,1712C 691.061,1719.87 676.894,1713.7 669,1693.5C 663.346,1640.45 657.513,1587.45 651.5,1534.5C 649.577,1533.69 647.577,1533.19 645.5,1533C 602.998,1532.95 560.498,1533.45 518,1534.5C 511.922,1534.49 505.922,1534.16 500,1533.5C 454.311,1376.06 408.645,1218.73 363,1061.5C 361.064,1058.9 358.564,1057.06 355.5,1056C 326.529,1043.16 297.529,1030.16 268.5,1017C 254.614,1006.34 251.78,993.171 260,977.5C 264.85,971.494 271.017,967.661 278.5,966C 296.113,961.511 313.78,957.345 331.5,953.5C 277.018,764.059 222.351,574.726 167.5,385.5C 249.343,385.007 331.176,384.007 413,382.5C 438.834,382.938 464.667,383.271 490.5,383.5C 531.081,550.299 571.747,717.299 612.5,884.5C 648.018,875.163 683.685,866.329 719.5,858C 720.667,857.5 721.5,856.667 722,855.5C 757.857,696.585 793.357,537.918 828.5,379.5C 936.166,378.868 1043.83,377.868 1151.5,376.5C 1180,494.153 1208.5,611.82 1237,729.5C 1237.41,729.957 1237.91,730.291 1238.5,730.5C 1298.81,715.175 1359.14,700.175 1419.5,685.5C 1443.75,581.162 1467.08,477.162 1489.5,373.5C 1594.99,372.485 1700.33,371.152 1805.5,369.5 Z M 1811.5,687.5 C 1685.11,916.61 1557.95,1145.28 1430,1373.5C 1413.88,1402.74 1398.05,1432.07 1382.5,1461.5C 1231.57,1401.68 1081.23,1340.85 931.5,1279C 1225.02,1081.96 1518.35,884.789 1811.5,687.5 Z M 1405.5,745.5 C 1405.82,748.013 1405.82,750.513 1405.5,753C 1402.75,764.741 1399.75,776.407 1396.5,788C 1352.8,807.845 1308.8,827.012 1264.5,845.5C 1260.45,824.691 1255.79,804.024 1250.5,783.5C 1302.59,772.014 1354.26,759.348 1405.5,745.5 Z M 1380.5,855.5 C 1381.24,855.369 1381.91,855.536 1382.5,856C 1377.36,876.536 1372.36,897.37 1367.5,918.5C 1343.03,934.477 1318.86,950.81 1295,967.5C 1290.13,947.463 1285.13,927.463 1280,907.5C 1279.33,905.167 1279.33,902.833 1280,900.5C 1313.7,885.562 1347.2,870.562 1380.5,855.5 Z M 705.5,917.5 C 706.552,917.351 707.552,917.517 708.5,918C 693.968,980.999 679.801,1044.17 666,1107.5C 652.672,1050.86 638.839,994.358 624.5,938C 651.858,931.942 678.858,925.108 705.5,917.5 Z M 994.5,957.5 C 996.241,959.013 997.241,961.013 997.5,963.5C 996.531,966.154 994.864,966.82 992.5,965.5C 994.055,963.057 994.722,960.39 994.5,957.5 Z M 1012.5,1018.5 C 1014.13,1020.86 1015.3,1023.52 1016,1026.5C 1026.07,1062.47 1036.57,1098.3 1047.5,1134C 1007.26,1160.71 967.09,1187.54 927,1214.5C 941.709,1154.42 957.542,1094.92 974.5,1036C 987.367,1030.4 1000.03,1024.56 1012.5,1018.5 Z M 759.5,1615.5 C 801.593,1517.31 844.26,1419.31 887.5,1321.5C 956.86,1350.17 1026.53,1378.34 1096.5,1406C 984.382,1475.75 872.049,1545.58 759.5,1615.5 Z M 723.5,1531.5 C 726.85,1531.33 730.183,1531.5 733.5,1532C 727.406,1546.92 720.906,1561.76 714,1576.5C 711.676,1561.91 710.176,1547.24 709.5,1532.5C 714.363,1532.82 719.03,1532.49 723.5,1531.5 Z"/></g>
</svg>
